# xmcd
#
# Track frame offsets:
# 150
# 4340
# 20907
# 50200
# 74342
# 103167
# 121062
# 144182
# 159109
#
# Disc length: 2164 seconds
#
#
# Revision: 0
# Processed by: cddbd v1.5.1PL2 Copyright (c) Steve Scherf et al.
# Submitted via: FreeRIP 2.945 
#
DISCID=77087209
DTITLE=Jimmy Cobb-Freddie Hubbard-GregoryHines - So nobody else can hear
DYEAR=2000
DGENRE=Blues
TTITLE0=Cobb
TTITLE1=So nobody else can hear
TTITLE2=Little girl
TTITLE3=Remembering the rain
TTITLE4=My old friend
TTITLE5=Pistachio
TTITLE6=Spotlight
TTITLE7=Cute
TTITLE8=Four more blues
EXTD=
EXTT0=
EXTT1=
EXTT2=
EXTT3=
EXTT4=
EXTT5=
EXTT6=
EXTT7=
EXTT8=
PLAYORDER=
